<svg width="170" height="170" viewBox="0 0 170 170" fill="none" xmlns="http://www.w3.org/2000/svg">
<path d="M28.6228 33.7151C32.9969 33.7151 36.5561 30.1558 36.5561 25.7817C36.5561 21.4076 32.9969 17.8484 28.6228 17.8484C24.2487 17.8484 20.6895 21.4076 20.6895 25.7817C20.6895 30.1558 24.2487 33.7151 28.6228 33.7151ZM28.6228 22.3817C30.4979 22.3817 32.0228 23.9066 32.0228 25.7817C32.0228 27.6568 30.4979 29.1817 28.6228 29.1817C26.7477 29.1817 25.2228 27.6568 25.2228 25.7817C25.2228 23.9066 26.7483 22.3817 28.6228 22.3817Z" fill="#B6B6B6"/>
<path d="M131.756 64.3149C131.756 68.689 135.316 72.2483 139.69 72.2483C144.064 72.2483 147.623 68.689 147.623 64.3149C147.623 59.9408 144.064 56.3816 139.69 56.3816C135.316 56.3816 131.756 59.9408 131.756 64.3149ZM139.69 60.9149C141.565 60.9149 143.09 62.4398 143.09 64.3149C143.09 66.19 141.565 67.7149 139.69 67.7149C137.815 67.7149 136.29 66.19 136.29 64.3149C136.29 62.4398 137.815 60.9149 139.69 60.9149Z" fill="#B6B6B6"/>
<path d="M148.756 39.6814C150.174 39.6814 151.323 38.5324 151.323 37.115C151.323 35.6976 150.174 34.5486 148.756 34.5486C147.339 34.5486 146.19 35.6976 146.19 37.115C146.19 38.5324 147.339 39.6814 148.756 39.6814Z" fill="#B6B6B6"/>
<path d="M39.9561 48.7481C41.3735 48.7481 42.5225 47.5991 42.5225 46.1817C42.5225 44.7643 41.3735 43.6152 39.9561 43.6152C38.5387 43.6152 37.3896 44.7643 37.3896 46.1817C37.3896 47.5991 38.5387 48.7481 39.9561 48.7481Z" fill="#B6B6B6"/>
<path d="M123.723 29.2814C124.165 29.7239 124.746 29.9455 125.325 29.9455C125.905 29.9455 126.485 29.7239 126.928 29.2814L129.489 26.72L132.051 29.2814C132.493 29.7239 133.073 29.9455 133.653 29.9455C134.233 29.9455 134.813 29.7239 135.256 29.2814C136.141 28.3962 136.141 26.9614 135.256 26.0763L132.694 23.515L135.256 20.9536C136.141 20.0685 136.141 18.6337 135.256 17.7486C134.371 16.8634 132.936 16.8634 132.051 17.7486L129.489 20.3099L126.928 17.7486C126.043 16.8634 124.608 16.8634 123.723 17.7486C122.838 18.6337 122.838 20.0685 123.723 20.9536L126.284 23.515L123.723 26.0763C122.838 26.9614 122.838 28.3957 123.723 29.2814Z" fill="#B6B6B6"/>
<path d="M19.4563 76.8812C19.8989 77.3238 20.4792 77.5453 21.0589 77.5453C21.6386 77.5453 22.2188 77.3238 22.6614 76.8812L25.2227 74.3199L27.7841 76.8812C28.2266 77.3238 28.8069 77.5453 29.3866 77.5453C29.9663 77.5453 30.5466 77.3238 30.9891 76.8812C31.8743 75.9961 31.8743 74.5613 30.9891 73.6761L28.4278 71.1148L30.9891 68.5535C31.8743 67.6684 31.8743 66.2336 30.9891 65.3484C30.104 64.4633 28.6692 64.4633 27.7841 65.3484L25.2227 67.9098L22.6614 65.3484C21.7763 64.4633 20.3415 64.4633 19.4563 65.3484C18.5712 66.2336 18.5712 67.6684 19.4563 68.5535L22.0177 71.1148L19.4563 73.6761C18.5712 74.5613 18.5712 75.9955 19.4563 76.8812Z" fill="#B6B6B6"/>
<path d="M96.6226 77.9149C97.8745 77.9149 98.8893 76.9001 98.8893 75.6483C98.8893 74.3964 97.8745 73.3816 96.6226 73.3816C95.3708 73.3816 94.356 74.3964 94.356 75.6483C94.356 76.9001 95.3708 77.9149 96.6226 77.9149Z" fill="#B6B6B6"/>
<path d="M73.9561 77.9149C75.208 77.9149 76.2228 76.9001 76.2228 75.6483C76.2228 74.3964 75.208 73.3816 73.9561 73.3816C72.7043 73.3816 71.6895 74.3964 71.6895 75.6483C71.6895 76.9001 72.7043 77.9149 73.9561 77.9149Z" fill="#B6B6B6"/>
<path d="M147.849 112.369C144.974 110.211 144.732 106.724 144.454 102.689C144.017 96.3981 143.475 88.5713 130.905 86.9993C124.498 86.2049 118.148 88.2568 113.013 92.7878C108.745 96.5573 105.73 101.699 104.326 107.259L95.4902 103.245V101.416C95.4902 101.395 95.4788 101.377 95.4783 101.356C104.153 97.2112 110.749 89.4881 113.425 80.1772C114.932 80.2169 116.32 79.8117 117.69 78.9578C119.793 77.6454 121.216 75.5113 121.495 73.2446C121.776 70.9734 121.072 68.696 119.57 66.9937C118.536 65.827 117.195 65.0013 115.72 64.5967C115.716 64.1984 115.7 62.75 115.695 62.5992C115.808 62.3272 115.891 52.4961 115.891 52.4961C116.415 52.4338 116.927 52.3386 117.409 52.1714C119.109 51.5849 120.407 50.3808 121.261 48.5946H121.263C124.212 42.4327 118.943 33.7032 108.932 26.9825C109.634 25.2066 109.707 23.2697 109.067 21.4541C108.361 19.4555 106.922 17.8507 105.012 16.9361C103.102 16.0175 100.95 15.9025 98.9468 16.6063C97.129 17.2483 95.6653 18.5188 94.7223 20.1769C83.2111 16.5893 73.1063 17.955 70.1534 24.1169C69.4887 25.5052 69.3453 26.9559 69.6677 28.3607C59.967 32.796 54.6511 41.1815 54.6919 52.125L54.7208 55.8678C54.7429 57.986 54.799 61.9544 54.8409 62.1317C54.8403 62.1646 54.8641 64.038 54.8641 64.5916C53.5007 64.9611 52.2586 65.6938 51.2494 66.7387C49.742 68.3039 48.9538 70.3626 49.0314 72.5357C49.1153 74.9616 50.4923 77.3037 52.7102 78.8002C54.1116 79.7454 55.5169 80.2078 57.0441 80.1835C59.415 88.845 65.1644 96.1136 72.8354 100.527C72.8348 100.546 72.8246 100.562 72.8246 100.581V103.244L54.7599 111.454C46.4571 115.228 41.0913 123.662 41.0913 132.936V151.581C41.0913 152.834 42.1051 153.847 43.358 153.847H124.958C126.211 153.847 127.225 152.834 127.225 151.581V141.144C128.341 141.285 129.471 141.381 130.625 141.381C140.637 141.381 151.252 134.901 153.809 127.234C154.843 124.127 155.446 118.067 147.849 112.369ZM100.452 20.8835C101.312 20.5826 102.232 20.6353 103.049 21.0229C104.412 21.6774 105.126 23.1241 104.935 24.5453C104.007 24.0347 103.056 23.5378 102.07 23.0657C101.094 22.5982 100.12 22.1715 99.1491 21.772C99.5152 21.3873 99.9379 21.0643 100.452 20.8835ZM74.2396 26.0742C75.2602 23.9469 78.4454 22.7093 82.9124 22.7093C87.5806 22.7093 93.6502 24.0597 100.114 27.1542C112.762 33.2147 119.254 42.2859 117.171 46.6379C116.755 47.5078 116.288 47.7622 115.928 47.8886C113.289 48.7918 107.031 45.695 100.391 42.4191C98.7593 41.6133 97.0485 40.7678 95.2595 39.911C93.504 39.0701 91.7643 38.262 90.0774 37.4783C82.7572 34.0761 75.191 30.5565 74.1178 27.5662C73.941 27.0721 73.9761 26.625 74.2396 26.0742ZM71.9712 32.286C75.1508 35.5324 81.0855 38.2977 88.1649 41.5889C89.8382 42.3658 91.5626 43.1671 93.3023 44.0018C95.0731 44.8495 96.7686 45.6865 98.3847 46.4832C103.529 49.0242 107.802 51.1282 111.356 52.057V60.6278C104.574 65.7278 96.904 67.6601 89.6546 66.0752C83.1555 64.6562 77.766 60.5371 74.8703 54.7753C74.5405 54.1202 73.9138 53.664 73.1901 53.5535C72.462 53.4362 71.7293 53.6861 71.2198 54.2131C68.2958 57.2233 64.026 59.0321 59.2779 59.3284C59.2756 58.2348 59.2626 57.0442 59.2513 55.8242L59.2224 52.1074C59.1799 40.4261 65.9957 34.8955 71.9712 32.286ZM60.9739 77.1405C60.8436 76.5052 60.4469 75.9561 59.8848 75.6309C59.3227 75.3079 58.6472 75.2455 58.0301 75.4473C57.1535 75.7459 56.3431 75.7861 55.2455 75.0421C54.2408 74.3649 53.5942 73.3421 53.5585 72.3748C53.5251 71.4409 53.864 70.5575 54.5105 69.8866C55.1571 69.2179 56.0247 68.8484 56.9563 68.8484C57.5694 68.8484 58.1803 68.5872 58.6075 68.1492C59.2371 67.502 59.4315 66.9467 59.3924 63.8533C64.2413 63.5813 68.7401 61.9997 72.2653 59.3216C75.973 64.9906 81.8188 69.006 88.6873 70.5042C90.6707 70.9383 92.6738 71.1531 94.6815 71.1531C100.319 71.1514 105.973 69.4349 111.236 66.167C111.322 67.2028 111.529 67.6987 111.987 68.1622C112.412 68.594 113.016 68.8484 113.623 68.8484C114.597 68.8484 115.526 69.2666 116.171 69.9971C116.826 70.7366 117.118 71.6925 116.996 72.691C116.881 73.6118 116.244 74.5151 115.292 75.1107C114.335 75.7062 113.525 75.7969 112.5 75.4359C111.89 75.2121 111.21 75.2767 110.643 75.5906C110.074 75.9074 109.669 76.4537 109.53 77.0895C107.323 87.2232 99.8325 95.5016 89.9799 98.6936L88.9792 99.0212C86.1611 99.9352 83.2813 99.9686 80.656 99.1209C70.6339 95.896 63.0921 87.4731 60.9739 77.1405ZM79.2665 103.437C80.9841 103.991 82.7708 104.265 84.5835 104.265C86.5074 104.265 88.4573 103.955 90.3788 103.333L90.9568 103.144V103.982C90.9568 107.731 87.9065 110.782 84.1568 110.782C80.4072 110.782 77.3568 107.731 77.3568 103.982V102.686C77.9938 102.935 78.6097 103.226 79.2665 103.437ZM122.69 149.315H109.09V137.982C109.09 136.729 108.076 135.715 106.823 135.715C105.57 135.715 104.556 136.729 104.556 137.982V149.315H61.4896V137.982C61.4896 136.729 60.4758 135.715 59.2229 135.715C57.97 135.715 56.9563 136.729 56.9563 137.982V149.315H45.6229V132.937C45.6229 125.436 49.946 118.622 56.6355 115.581L73.5596 107.889C75.1593 112.21 79.2863 115.315 84.1563 115.315C89.0268 115.315 93.1532 112.21 94.7529 107.889L103.549 111.886C103.485 112.649 103.423 113.414 103.423 114.182C103.423 126.421 111.55 136.791 122.69 140.195V149.315ZM149.507 125.801C147.579 131.582 138.578 136.848 130.623 136.848C118.125 136.848 107.956 126.68 107.956 114.182C107.956 107.366 110.969 100.64 116.014 96.1878C119.582 93.0377 123.847 91.3644 128.212 91.3644C128.921 91.3644 129.631 91.4086 130.342 91.497C139.211 92.6059 139.513 96.9664 139.931 103.001C140.241 107.497 140.593 112.592 145.131 115.995C149.188 119.038 150.66 122.339 149.507 125.801Z" fill="#B6B6B6"/>
<path d="M139.689 116.541C135.991 116.541 132.982 119.55 132.982 123.248C132.982 126.945 135.991 129.953 139.689 129.953C143.388 129.953 146.397 126.945 146.397 123.248C146.397 119.55 143.389 116.541 139.689 116.541ZM139.689 125.42C138.492 125.42 137.516 124.446 137.516 123.248C137.516 122.051 138.492 121.075 139.689 121.075C140.887 121.075 141.863 122.051 141.863 123.248C141.863 124.446 140.887 125.42 139.689 125.42Z" fill="#B6B6B6"/>
<path d="M126.09 94.6492C122.818 94.6492 120.157 97.3097 120.157 100.582C120.157 103.854 122.818 106.514 126.09 106.514C129.362 106.514 132.022 103.854 132.022 100.582C132.022 97.3097 129.362 94.6492 126.09 94.6492ZM126.09 101.981C125.32 101.981 124.691 101.352 124.691 100.582C124.691 99.8109 125.319 99.1825 126.09 99.1825C126.86 99.1825 127.489 99.8109 127.489 100.582C127.489 101.352 126.86 101.981 126.09 101.981Z" fill="#B6B6B6"/>
<path d="M121.822 113.048C121.822 109.777 119.161 107.116 115.889 107.116C112.618 107.116 109.957 109.776 109.957 113.048C109.957 116.32 112.618 118.981 115.889 118.981C119.161 118.981 121.822 116.32 121.822 113.048ZM115.889 114.448C115.119 114.448 114.49 113.819 114.49 113.048C114.49 112.278 115.119 111.649 115.889 111.649C116.66 111.649 117.289 112.278 117.289 113.048C117.289 113.819 116.66 114.448 115.889 114.448Z" fill="#B6B6B6"/>
<path d="M123.823 121.849C120.552 121.849 117.891 124.51 117.891 127.782C117.891 131.053 120.551 133.714 123.823 133.714C127.095 133.714 129.755 131.053 129.755 127.782C129.755 124.51 127.095 121.849 123.823 121.849ZM123.823 129.181C123.053 129.181 122.424 128.552 122.424 127.782C122.424 127.011 123.052 126.382 123.823 126.382C124.594 126.382 125.222 127.011 125.222 127.782C125.222 128.552 124.594 129.181 123.823 129.181Z" fill="#B6B6B6"/>
<path d="M34.7947 98.0604C34.3743 97.6445 33.947 97.2217 33.5311 96.7854C33.5305 96.7848 33.5299 96.7848 33.5299 96.7843C33.5294 96.7843 33.5294 96.7837 33.5294 96.7831C31.792 94.9658 30.6343 93.31 30.6343 91.1431C30.6343 88.2633 29.14 87.4728 28.248 87.2586C24.7132 86.3644 20.5737 93.3015 18.422 97.496C17.1295 100.017 15.5864 103.546 15.5864 106.04C15.5864 110.439 18.0123 114.245 21.5704 116.305L20.2592 145.424C20.1526 147.776 20.9766 150.052 22.519 151.664C23.8649 153.074 25.6312 153.848 27.4904 153.848C29.3496 153.848 31.1159 153.074 32.4618 151.664C34.0048 150.052 34.8282 147.777 34.7216 145.424L33.4104 116.305C36.9685 114.244 39.3949 110.438 39.3949 106.04C39.3944 102.616 36.9503 100.194 34.7947 98.0604ZM26.3389 93.3718C26.7594 95.269 27.6825 96.8472 28.7518 98.206C27.9505 98.8016 27.16 99.1155 26.3877 99.1467C25.3473 99.1422 24.2185 98.6622 23.2976 97.9958C24.3953 96.0459 25.4736 94.4723 26.3389 93.3718ZM30.1928 145.627C30.2438 146.749 29.8761 147.81 29.1859 148.531C28.8447 148.89 28.2718 149.315 27.4904 149.315C26.709 149.315 26.1355 148.89 25.7949 148.531C25.1042 147.81 24.737 146.749 24.788 145.627L26.0409 117.798C26.5214 117.857 26.994 117.945 27.4904 117.945C27.9868 117.945 28.4594 117.857 28.9399 117.798L30.1928 145.627ZM27.4898 113.411C23.4257 113.411 20.1186 110.104 20.1186 106.04C20.1186 105.398 20.4552 104.031 21.286 102.062C22.918 103.107 24.5783 103.682 26.2545 103.682C26.3565 103.682 26.4579 103.68 26.5622 103.676C28.4186 103.604 30.1889 102.875 31.8509 101.526C33.4891 103.152 34.861 104.579 34.861 106.04C34.861 110.104 31.554 113.411 27.4898 113.411Z" fill="#B6B6B6"/>
</svg>
